<svg width="183" height="127" viewBox="0 0 183 127" fill="none" xmlns="http://www.w3.org/2000/svg">
<path d="M2.48526 78.5677V81.6691L152.222 81.6392C152.222 81.6392 154.122 79.4497 154.523 79.0537C154.64 78.9385 154.754 78.8081 154.878 78.6653C155.284 78.2005 155.808 77.5988 156.948 76.9301C158.439 76.0548 159.745 76.11 160.657 76.4965C161.568 76.883 162.172 77.278 162.419 77.6134L164.645 79.4134C165.68 80.4044 166.947 80.8212 167.289 80.7567H168.744L167.289 79.0457C167.289 79.0457 166.219 77.4628 165.471 76.4965C164.91 75.7708 164.685 75.2631 163.979 74.6823C163.24 74.0743 163.078 73.9753 162.419 73.6758C161.766 73.3789 161.122 73.2679 160.657 73.1668C159.476 72.9103 158.265 73.1043 157.568 73.3172C156.056 73.7873 154.707 74.589 154.116 74.9403C154.066 74.9703 154.021 74.997 153.982 75.0199C153.486 75.3993 153.129 75.6581 152.85 75.8607C152.057 76.4351 151.89 76.5567 150.947 77.6926L149.972 78.5677H2.48526Z" fill="#FF4F04"/>
<path d="M31.5811 42.5459H129.427L125.834 68.1567H127.168L135.093 40.0086C135.283 40.0086 141.585 40.0086 141.585 40.0086C142.275 40.2733 142.547 40.7191 143.271 40.8672H148.161C149.51 41.2961 153.557 45.928 153.557 45.928L135.767 46.4426V47.6435L148.836 49.0159L154.569 50.3884C156.115 50.7601 159.459 53.5621 159.459 56.9932C159.459 59.9953 151.871 62.9975 151.871 62.9975L163.229 63.7958C164.645 63.7598 173.622 64.2387 175.548 65.4164C177.194 65.9689 180.881 69.107 182.458 77.2392L183.002 76.5477V67.558C182.798 65.9906 181.493 62.6206 177.904 61.6801L164.038 58.7066V51.7223C163.947 50.3623 162.705 47.2136 158.464 45.4986C158.006 43.0494 153.551 37.0203 148.161 35.7978C147.068 35.5498 145.311 35.4544 145.311 35.4544H127.168L86.5325 38.1026L36.7577 41.1933L31.5811 41.7066V42.5459Z" fill="#FF4F04"/>
<path d="M121.847 87.3816C113.685 95.4404 102.08 103.847 88.3914 111.11C57.5887 127.452 27.9077 131.821 22.0968 120.87C18.0237 113.192 26.7618 100.024 42.962 87.2062C32.7595 97.2805 27.9403 106.813 31.1683 112.897C36.9788 123.849 66.6597 119.48 97.4627 103.138C106.672 98.2525 114.937 92.8482 121.847 87.3816Z" fill="white"/>
<path d="M87.6558 35.4541C94.9575 27.4971 105.933 19.3027 119.135 12.5484C147.099 -1.75794 174.455 -4.19227 180.238 7.11048C184.434 15.3123 176.116 28.493 160.553 40.5748C170.912 30.6588 175.86 20.947 172.591 14.5565C166.943 3.51953 138.922 6.56724 110.001 21.3632C101.581 25.6709 94.0145 30.5005 87.6558 35.4541Z" fill="white"/>
<path d="M108.272 51.1687C108.272 51.1687 110.213 51.1601 112.154 51.1516C114.111 51.1601 116.061 51.1516 116.061 51.1516C116.989 51.1516 117.198 52.0746 116.855 54.049C116.855 54.049 116.688 54.9806 116.445 56.3909C116.203 57.8011 115.876 59.6815 115.55 61.5618C115.216 63.4421 114.889 65.3225 114.647 66.7413C114.404 68.1515 114.237 69.0832 114.237 69.0832C114.145 69.6045 113.994 69.8524 113.785 69.8524L112.405 69.8438C112.204 69.8524 112.145 69.6131 112.237 69.0832C112.237 69.0832 112.798 65.8695 113.358 62.6473C113.919 59.4165 114.479 56.1943 114.479 56.1943C114.571 55.6815 114.513 55.4849 114.304 55.4849L108.514 55.502C108.289 55.502 108.188 55.69 108.096 56.2114C108.096 56.2114 107.536 59.4251 106.975 62.6558C106.406 65.878 105.854 69.1002 105.854 69.1002C105.762 69.6131 105.612 69.8609 105.402 69.8609H104.03C103.813 69.8609 103.754 69.6216 103.838 69.0917C103.838 69.0917 104.005 68.1601 104.248 66.7584C104.499 65.3481 104.817 63.4592 105.16 61.5789C105.486 59.7071 105.812 57.8268 106.055 56.408C106.289 55.0063 106.465 54.0661 106.465 54.0661C106.808 52.1003 107.335 51.1772 108.272 51.1687Z" fill="#FFD20B"/>
<path d="M92.134 51.2199H93.5228C94.351 51.2028 94.4848 51.7157 94.5518 53.8011C94.5518 53.8011 94.6438 56.5875 94.7442 59.3823C94.8362 62.1772 94.9282 64.955 94.9282 64.955C94.945 65.2114 94.9784 65.2712 95.0788 65.2627L95.2963 65.2712C95.3967 65.2712 95.4637 65.2114 95.5557 64.955C95.5557 64.955 96.6182 62.1686 97.689 59.3738C98.7515 56.5789 99.8223 53.7926 99.8223 53.7926C100.617 51.6986 100.935 51.1943 101.755 51.1858L103.16 51.1943C104.139 51.1772 104.214 52.1345 103.771 54.7498C103.771 54.7498 103.144 58.331 102.508 61.9293C101.889 65.5191 101.27 69.1002 101.27 69.1002C101.178 69.6131 101.027 69.8524 100.826 69.8609H99.4458C99.2367 69.8524 99.1781 69.6131 99.2702 69.1088C99.2702 69.1088 99.8558 65.7242 100.441 62.3396C101.035 58.9464 101.629 55.5789 101.629 55.5789C101.663 55.3396 101.654 55.2285 101.571 55.237H101.445C101.337 55.237 101.295 55.3139 101.219 55.5191C101.219 55.5191 100.165 58.2712 99.1028 61.0233C98.0487 63.7669 97.003 66.5276 97.003 66.5276C96.0744 68.9806 95.6059 69.8695 94.694 69.8695L94.0749 69.8609C93.1714 69.8695 93.0124 68.972 92.9372 66.5276C92.9372 66.5276 92.8368 63.7755 92.7447 61.0319C92.6527 58.2883 92.5523 55.5362 92.5523 55.5362C92.5523 55.331 92.5272 55.2627 92.4268 55.2541L92.293 55.2627C92.2177 55.2627 92.1759 55.3652 92.134 55.6045C92.134 55.6045 91.54 58.9635 90.9544 62.3567C90.3521 65.7413 89.7748 69.1088 89.7748 69.1088C89.6744 69.6216 89.5322 69.8695 89.3231 69.8695H87.9594C87.7419 69.8695 87.675 69.6216 87.7586 69.1173C87.7586 69.1173 88.3945 65.5362 89.0135 61.955C89.641 58.3567 90.2684 54.7926 90.2684 54.7926C90.7118 52.1858 91.1385 51.2285 92.134 51.2199Z" fill="#FFD20B"/>
<path d="M82.028 51.2541L86.1357 51.2285C88.0515 51.2285 88.3108 52.69 87.5913 56.8011L87.0308 60.0319C86.7715 61.4678 86.4368 61.955 85.8847 61.9635C85.8847 61.9635 84.1111 61.9721 82.3459 61.9721C80.5723 61.9721 78.8071 61.9806 78.8071 61.9806L78.6733 62.7755C78.2968 64.9293 78.4641 65.8011 79.6772 65.8097L85.525 65.8011C85.6839 65.8011 85.7341 66.0062 85.6588 66.4165L85.1652 69.2541C85.1067 69.6643 84.9812 69.8695 84.8055 69.878L78.7737 69.8695C77.5104 69.878 76.7742 69.3908 76.4396 68.2968C76.1133 67.1943 76.2053 65.4849 76.6403 63.0319L77.4853 58.1516C77.9287 55.69 78.4223 53.9635 79.1418 52.861C79.8529 51.7499 80.7647 51.2541 82.028 51.2541ZM79.4931 58.0404L79.3342 58.955L85.0146 58.9379C85.1819 58.9379 85.274 58.8097 85.3493 58.3652L85.6002 56.9379C85.8429 55.5447 85.7257 55.0063 85.0816 55.0063L81.5679 55.0148C80.3464 55.0234 79.878 55.861 79.4931 58.0404Z" fill="#FFD20B"/>
<path d="M66.8606 46.1943C66.8606 46.1943 69.5963 46.1858 72.3319 46.1687C75.0676 46.1516 77.8032 46.1516 77.8032 46.1516C78.0124 46.1516 78.0877 46.3823 77.9956 46.8952L77.4184 50.2114C77.318 50.7157 77.159 50.9977 76.9583 50.9892L72.5578 50.9977C72.5578 50.9977 72.357 52.143 72.0558 53.8439C71.763 55.5447 71.3698 57.8097 70.9683 60.0746C70.5751 62.3481 70.1735 64.6131 69.8807 66.3139C69.5795 68.0148 69.3787 69.143 69.3787 69.143C69.2951 69.6387 69.1612 69.8866 68.9521 69.8866L67.4211 69.878C67.212 69.8866 67.145 69.6387 67.2371 69.143C67.2371 69.143 67.4295 68.0148 67.7306 66.3139C68.0235 64.6131 68.425 62.3481 68.8182 60.0832C69.2198 57.8182 69.613 55.5447 69.9058 53.8524C70.207 52.1516 70.4077 51.0148 70.4077 51.0148H66.0156C65.8065 51.0319 65.7312 50.7499 65.8232 50.2456L66.4005 46.9379C66.4925 46.4251 66.6514 46.1858 66.8606 46.1943Z" fill="#FFD20B"/>
<path d="M56.0602 45.4593L56.3781 43.6986C56.445 43.2969 56.604 42.9294 56.7713 42.9294C56.8633 42.9208 56.9721 43.0063 57.0557 43.2883C57.2482 43.9379 57.9007 45.9037 59.3396 45.9037C60.7869 45.9037 62.1255 43.9123 62.5605 43.2712C62.7278 42.9892 62.8868 42.9037 62.9705 42.9037C63.1378 42.9037 63.1629 43.2712 63.0959 43.6729L62.7864 45.4251C62.6944 45.9293 62.6023 46.3396 62.2677 46.8097C61.5984 47.8268 60.1093 49.1772 58.7624 49.1943C57.4322 49.1858 56.4199 47.8353 56.102 46.8268C55.9431 46.3225 55.9682 45.9635 56.0602 45.4593ZM53.5504 51.3311H54.9141C55.1232 51.3311 55.165 51.596 55.0814 52.1088C55.0814 52.1088 54.5125 55.3567 53.9353 58.596C53.3664 61.8439 52.8059 65.0917 52.8059 65.0917C52.764 65.3225 52.7891 65.4336 52.8561 65.4336L52.9899 65.425C53.0652 65.4336 53.1405 65.3652 53.2158 65.2028C53.2158 65.2028 54.7802 62.2285 56.3446 59.2627C57.9174 56.2798 59.4902 53.3054 59.4902 53.3054C60.2348 51.8866 60.5945 51.314 61.565 51.314L62.3514 51.3054C63.2047 51.3054 63.4724 52.0746 62.9872 54.8524C62.9872 54.8524 62.3597 58.4165 61.7323 61.9977C61.1132 65.5703 60.4858 69.1344 60.4858 69.1344C60.3937 69.6473 60.2264 69.8866 60.034 69.8951H58.6453C58.4528 69.8951 58.3859 69.6473 58.478 69.1344C58.478 69.1344 59.0468 65.8866 59.6157 62.6216C60.193 59.3652 60.7618 56.1088 60.7618 56.1088C60.7953 55.8866 60.7953 55.7755 60.7116 55.784H60.5778C60.4858 55.784 60.4439 55.8353 60.3603 56.0063C60.3603 56.0063 58.7791 58.9892 57.2147 61.955C55.6335 64.9293 54.0691 67.8951 54.0691 67.8951C53.2994 69.3567 52.9732 69.9037 52.0027 69.9037H51.2498C50.3881 69.8951 50.112 69.1173 50.5973 66.3738C50.5973 66.3738 51.2163 62.8097 51.8438 59.2456C52.4629 55.6729 53.0987 52.1088 53.0987 52.1088C53.174 51.6046 53.3413 51.3396 53.5504 51.3311Z" fill="#FFD20B"/>
<path d="M43.436 51.3567L47.3931 51.3481C48.6564 51.3481 49.4093 51.8353 49.7272 52.9379C50.0451 54.0404 49.9615 55.7498 49.5264 58.2114L48.6731 63.0746C48.2381 65.5191 47.7361 67.2285 47.025 68.3225C46.3306 69.4165 45.402 69.8951 44.1388 69.9037L40.1817 69.9122C38.9184 69.9037 38.1655 69.4336 37.8392 68.331C37.513 67.237 37.6134 65.5362 38.04 63.0832L38.8933 58.2199C39.3284 55.7755 39.822 54.0661 40.5414 52.9635C41.2525 51.8524 42.1728 51.3652 43.436 51.3567ZM40.7589 59.0319L40.1984 62.237C39.7048 65.0661 39.8638 65.955 41.0685 65.955H44.6407C45.8538 65.9379 46.3474 65.0661 46.841 62.237L47.4015 59.0063C47.9034 56.1772 47.7194 55.3396 46.5063 55.331L42.9257 55.3567C41.721 55.3567 41.2525 56.1943 40.7589 59.0319Z" fill="#FFD20B"/>
<path d="M30.4772 51.3994L34.4009 51.3909C35.6557 51.3738 36.4087 51.861 36.7349 52.9721C37.0528 54.0746 36.9692 55.784 36.5342 58.237L35.6725 63.0832C35.2542 65.5362 34.7439 67.2456 34.0328 68.331C33.3217 69.4336 32.4014 69.9208 31.1465 69.9208H25.8927L24.7215 76.6216C24.6295 77.1344 24.4872 77.3567 24.2697 77.3652H22.9061C22.6969 77.3737 22.63 77.1344 22.722 76.6216C22.722 76.6216 22.9228 75.4763 23.224 73.7498C23.5252 72.0319 23.9267 69.7327 24.3283 67.4421C24.7382 65.143 25.1314 62.8438 25.441 61.1174C25.7421 59.408 25.9429 58.2456 25.9429 58.2456C26.3696 55.8097 26.8715 54.1003 27.591 52.9977C28.3021 51.8866 29.214 51.3909 30.4772 51.3994ZM27.7834 59.1515L26.6038 65.8695H31.6652C32.8783 65.8695 33.3467 65.0233 33.8571 62.1515L34.3841 59.1345C34.8861 56.3139 34.7104 55.4336 33.4973 55.4336L29.9669 55.4422C28.7622 55.4507 28.277 56.331 27.7834 59.1515Z" fill="#FFD20B"/>
<path d="M14.7326 51.4422C14.7326 51.4422 17.3009 51.4336 19.8776 51.4336C22.446 51.4165 25.0059 51.408 25.0059 51.408C25.1816 51.4165 25.2318 51.6046 25.1565 52.0148L24.6546 54.8524C24.5709 55.2969 24.4705 55.4507 24.3032 55.4507L20.1704 55.4763C20.1704 55.4763 19.5681 58.878 18.9657 62.3139C18.3634 65.7413 17.7527 69.1857 17.7527 69.1857C17.669 69.69 17.5268 69.9293 17.3177 69.9293H15.9456C15.7365 69.9293 15.6445 69.6814 15.7365 69.1772C15.7365 69.1772 16.3556 65.7498 16.9412 62.3225C17.5435 58.9037 18.1626 55.4763 18.1626 55.4763L14.0299 55.4849C13.8542 55.4763 13.804 55.314 13.8876 54.8695L14.3812 52.049C14.4481 51.6387 14.5736 51.4336 14.7326 51.4422Z" fill="#FFD20B"/>
<path d="M7.01922 46.3909L13.3522 46.3738C13.553 46.3738 13.6032 46.6131 13.5112 47.1088L12.9339 50.4165C12.8419 50.9123 12.7164 51.1858 12.4989 51.1858L6.24955 51.1943C4.82735 51.1943 4.20827 52.2199 3.58083 55.7755L2.76097 60.5533C2.11679 64.1259 2.36777 65.1686 3.80671 65.1686L10.0393 65.1515C10.2485 65.1515 10.2987 65.3823 10.2066 65.8951L9.62938 69.1943C9.53736 69.69 9.41187 69.9379 9.19435 69.9379L2.87809 69.9464C1.46425 69.9464 0.58583 69.3396 0.217729 67.9293C-0.158737 66.5105 -0.041614 64.2968 0.527268 61.0575L1.54791 55.2798C2.11679 52.049 2.7777 49.8353 3.64775 48.4251C4.52618 46.9977 5.61374 46.3909 7.01922 46.3909Z" fill="#FFD20B"/>
</svg>
